<?xml version='1.0' encoding='utf-8'?>
<COLLADA xmlns="http://www.collada.org/2005/11/COLLADASchema" version="1.4.1">
  <asset>
    <unit meter="1" name="meter" />
    <up_axis>Z_UP</up_axis>
  </asset>
  <library_effects>
    <effect id="steelfx" name="steelfx">
      <profile_COMMON>
        <technique sid="common">
          <phong>
            <diffuse>
              <color>0.95 0.35 0.05 1</color>
            </diffuse>
            <emission>
              <color>0 0 0 1</color>
            </emission>
            <ambient>
              <color>0.95 0.35 0.05 1</color>
            </ambient>
            <specular>
              <color>0.05 0.05 0.05 1</color>
            </specular>
            <shininess>
              <float>10</float>
            </shininess>
          </phong>
        </technique>
      </profile_COMMON>
    </effect>
    <effect id="bluefx" name="bluefx">
      <profile_COMMON>
        <technique sid="common">
          <phong>
            <diffuse>
              <color>0.05 0.45 0.90 1</color>
            </diffuse>
            <emission>
              <color>0 0 0 1</color>
            </emission>
            <ambient>
              <color>0.05 0.45 0.90 1</color>
            </ambient>
            <specular>
              <color>0.05 0.05 0.05 1</color>
            </specular>
            <shininess>
              <float>10</float>
            </shininess>
          </phong>
        </technique>
      </profile_COMMON>
    </effect>
    <effect id="rubberfx" name="rubberfx">
      <profile_COMMON>
        <technique sid="common">
          <phong>
            <diffuse>
              <color>0.04 0.04 0.04 1</color>
            </diffuse>
            <emission>
              <color>0 0 0 1</color>
            </emission>
            <ambient>
              <color>0.04 0.04 0.04 1</color>
            </ambient>
            <specular>
              <color>0.05 0.05 0.05 1</color>
            </specular>
            <shininess>
              <float>10</float>
            </shininess>
          </phong>
        </technique>
      </profile_COMMON>
    </effect>
  </library_effects>
  <library_materials>
    <material id="steel" name="steel">
      <instance_effect url="#steelfx" />
    </material>
    <material id="blue" name="blue">
      <instance_effect url="#bluefx" />
    </material>
    <material id="rubber" name="rubber">
      <instance_effect url="#rubberfx" />
    </material>
  </library_materials>
  <library_geometries>
    <geometry id="cartgeo">
      <mesh>
        <source id="positions">
          <float_array id="positions-array" count="1032">0.5249999999999999 -0.26 -0.7975 1.375 -0.26 -0.7975 1.375 0.26 -0.7975 0.5249999999999999 0.26 -0.7975 0.5249999999999999 -0.26 -0.7625000000000001 1.375 -0.26 -0.7625000000000001 1.375 0.26 -0.7625000000000001 0.5249999999999999 0.26 -0.7625000000000001 0.5549999999999999 -0.23 -0.762 1.345 -0.23 -0.762 1.345 0.23 -0.762 0.5549999999999999 0.23 -0.762 0.5549999999999999 -0.23 -0.754 1.345 -0.23 -0.754 1.345 0.23 -0.754 0.5549999999999999 0.23 -0.754 0.5249999999999999 -0.259 -0.7775 1.375 -0.259 -0.7775 1.375 -0.241 -0.7775 0.5249999999999999 -0.241 -0.7775 0.5249999999999999 -0.259 -0.7325 1.375 -0.259 -0.7325 1.375 -0.241 -0.7325 0.5249999999999999 -0.241 -0.7325 0.5249999999999999 0.241 -0.7775 1.375 0.241 -0.7775 1.375 0.259 -0.7775 0.5249999999999999 0.259 -0.7775 0.5249999999999999 0.241 -0.7325 1.375 0.241 -0.7325 1.375 0.259 -0.7325 0.5249999999999999 0.259 -0.7325 0.526 -0.26 -0.7775 0.544 -0.26 -0.7775 0.544 0.26 -0.7775 0.526 0.26 -0.7775 0.526 -0.26 -0.7325 0.544 -0.26 -0.7325 0.544 0.26 -0.7325 0.526 0.26 -0.7325 1.356 -0.26 -0.7775 1.3739999999999999 -0.26 -0.7775 1.3739999999999999 0.26 -0.7775 1.356 0.26 -0.7775 1.356 -0.26 -0.7325 1.3739999999999999 -0.26 -0.7325 1.3739999999999999 0.26 -0.7325 1.356 0.26 -0.7325 0.5249999999999999 -0.26 -0.4575 1.375 -0.26 -0.4575 1.375 0.26 -0.4575 0.5249999999999999 0.26 -0.4575 0.5249999999999999 -0.26 -0.4225 1.375 -0.26 -0.4225 1.375 0.26 -0.4225 0.5249999999999999 0.26 -0.4225 0.5549999999999999 -0.23 -0.422 1.345 -0.23 -0.422 1.345 0.23 -0.422 0.5549999999999999 0.23 -0.422 0.5549999999999999 -0.23 -0.414 1.345 -0.23 -0.414 1.345 0.23 -0.414 0.5549999999999999 0.23 -0.414 0.5249999999999999 -0.259 -0.4375 1.375 -0.259 -0.4375 1.375 -0.241 -0.4375 0.5249999999999999 -0.241 -0.4375 0.5249999999999999 -0.259 -0.39249999999999996 1.375 -0.259 -0.39249999999999996 1.375 -0.241 -0.39249999999999996 0.5249999999999999 -0.241 -0.39249999999999996 0.5249999999999999 0.241 -0.4375 1.375 0.241 -0.4375 1.375 0.259 -0.4375 0.5249999999999999 0.259 -0.4375 0.5249999999999999 0.241 -0.39249999999999996 1.375 0.241 -0.39249999999999996 1.375 0.259 -0.39249999999999996 0.5249999999999999 0.259 -0.39249999999999996 0.526 -0.26 -0.4375 0.544 -0.26 -0.4375 0.544 0.26 -0.4375 0.526 0.26 -0.4375 0.526 -0.26 -0.39249999999999996 0.544 -0.26 -0.39249999999999996 0.544 0.26 -0.39249999999999996 0.526 0.26 -0.39249999999999996 1.356 -0.26 -0.4375 1.3739999999999999 -0.26 -0.4375 1.3739999999999999 0.26 -0.4375 1.356 0.26 -0.4375 1.356 -0.26 -0.39249999999999996 1.3739999999999999 -0.26 -0.39249999999999996 1.3739999999999999 0.26 -0.39249999999999996 1.356 0.26 -0.39249999999999996 0.5249999999999999 -0.26 -0.11750000000000001 1.375 -0.26 -0.11750000000000001 1.375 0.26 -0.11750000000000001 0.5249999999999999 0.26 -0.11750000000000001 0.5249999999999999 -0.26 -0.0825 1.375 -0.26 -0.0825 1.375 0.26 -0.0825 0.5249999999999999 0.26 -0.0825 0.5549999999999999 -0.23 -0.08200000000000002 1.345 -0.23 -0.08200000000000002 1.345 0.23 -0.08200000000000002 0.5549999999999999 0.23 -0.08200000000000002 0.5549999999999999 -0.23 -0.07400000000000001 1.345 -0.23 -0.07400000000000001 1.345 0.23 -0.07400000000000001 0.5549999999999999 0.23 -0.07400000000000001 0.5249999999999999 -0.259 -0.0975 1.375 -0.259 -0.0975 1.375 -0.241 -0.0975 0.5249999999999999 -0.241 -0.0975 0.5249999999999999 -0.259 -0.05250000000000001 1.375 -0.259 -0.05250000000000001 1.375 -0.241 -0.05250000000000001 0.5249999999999999 -0.241 -0.05250000000000001 0.5249999999999999 0.241 -0.0975 1.375 0.241 -0.0975 1.375 0.259 -0.0975 0.5249999999999999 0.259 -0.0975 0.5249999999999999 0.241 -0.05250000000000001 1.375 0.241 -0.05250000000000001 1.375 0.259 -0.05250000000000001 0.5249999999999999 0.259 -0.05250000000000001 0.526 -0.26 -0.0975 0.544 -0.26 -0.0975 0.544 0.26 -0.0975 0.526 0.26 -0.0975 0.526 -0.26 -0.05250000000000001 0.544 -0.26 -0.05250000000000001 0.544 0.26 -0.05250000000000001 0.526 0.26 -0.05250000000000001 1.356 -0.26 -0.0975 1.3739999999999999 -0.26 -0.0975 1.3739999999999999 0.26 -0.0975 1.356 0.26 -0.0975 1.356 -0.26 -0.05250000000000001 1.3739999999999999 -0.26 -0.05250000000000001 1.3739999999999999 0.26 -0.05250000000000001 1.356 0.26 -0.05250000000000001 0.5575 -0.2325 -0.7949999999999999 0.5824999999999999 -0.2325 -0.7949999999999999 0.5824999999999999 -0.2075 -0.7949999999999999 0.5575 -0.2075 -0.7949999999999999 0.5575 -0.2325 -0.10500000000000004 0.5824999999999999 -0.2325 -0.10500000000000004 0.5824999999999999 -0.2075 -0.10500000000000004 0.5575 -0.2075 -0.10500000000000004 0.6499999999999999 -0.245 -0.92 0.6439103626009028 -0.245 -0.8893853254107928 0.6265685424949238 -0.245 -0.8634314575050762 0.6006146745892071 -0.245 -0.8460896373990971 0.57 -0.245 -0.8400000000000001 0.5393853254107928 -0.245 -0.8460896373990971 0.5134314575050761 -0.245 -0.8634314575050762 0.496089637399097 -0.245 -0.8893853254107928 0.48999999999999994 -0.245 -0.92 0.496089637399097 -0.245 -0.9506146745892072 0.5134314575050761 -0.245 -0.9765685424949239 0.5393853254107928 -0.245 -0.9939103626009029 0.57 -0.245 -1.0 0.6006146745892071 -0.245 -0.9939103626009029 0.6265685424949238 -0.245 -0.9765685424949239 0.6439103626009028 -0.245 -0.9506146745892072 0.6499999999999999 -0.195 -0.92 0.6439103626009028 -0.195 -0.8893853254107928 0.6265685424949238 -0.195 -0.8634314575050762 0.6006146745892071 -0.195 -0.8460896373990971 0.57 -0.195 -0.8400000000000001 0.5393853254107928 -0.195 -0.8460896373990971 0.5134314575050761 -0.195 -0.8634314575050762 0.496089637399097 -0.195 -0.8893853254107928 0.48999999999999994 -0.195 -0.92 0.496089637399097 -0.195 -0.9506146745892072 0.5134314575050761 -0.195 -0.9765685424949239 0.5393853254107928 -0.195 -0.9939103626009029 0.57 -0.195 -1.0 0.6006146745892071 -0.195 -0.9939103626009029 0.6265685424949238 -0.195 -0.9765685424949239 0.6439103626009028 -0.195 -0.9506146745892072 0.5575 0.2075 -0.7949999999999999 0.5824999999999999 0.2075 -0.7949999999999999 0.5824999999999999 0.2325 -0.7949999999999999 0.5575 0.2325 -0.7949999999999999 0.5575 0.2075 -0.10500000000000004 0.5824999999999999 0.2075 -0.10500000000000004 0.5824999999999999 0.2325 -0.10500000000000004 0.5575 0.2325 -0.10500000000000004 0.6499999999999999 0.195 -0.92 0.6439103626009028 0.195 -0.8893853254107928 0.6265685424949238 0.195 -0.8634314575050762 0.6006146745892071 0.195 -0.8460896373990971 0.57 0.195 -0.8400000000000001 0.5393853254107928 0.195 -0.8460896373990971 0.5134314575050761 0.195 -0.8634314575050762 0.496089637399097 0.195 -0.8893853254107928 0.48999999999999994 0.195 -0.92 0.496089637399097 0.195 -0.9506146745892072 0.5134314575050761 0.195 -0.9765685424949239 0.5393853254107928 0.195 -0.9939103626009029 0.57 0.195 -1.0 0.6006146745892071 0.195 -0.9939103626009029 0.6265685424949238 0.195 -0.9765685424949239 0.6439103626009028 0.195 -0.9506146745892072 0.6499999999999999 0.245 -0.92 0.6439103626009028 0.245 -0.8893853254107928 0.6265685424949238 0.245 -0.8634314575050762 0.6006146745892071 0.245 -0.8460896373990971 0.57 0.245 -0.8400000000000001 0.5393853254107928 0.245 -0.8460896373990971 0.5134314575050761 0.245 -0.8634314575050762 0.496089637399097 0.245 -0.8893853254107928 0.48999999999999994 0.245 -0.92 0.496089637399097 0.245 -0.9506146745892072 0.5134314575050761 0.245 -0.9765685424949239 0.5393853254107928 0.245 -0.9939103626009029 0.57 0.245 -1.0 0.6006146745892071 0.245 -0.9939103626009029 0.6265685424949238 0.245 -0.9765685424949239 0.6439103626009028 0.245 -0.9506146745892072 1.3175000000000001 -0.2325 -0.7949999999999999 1.3425 -0.2325 -0.7949999999999999 1.3425 -0.2075 -0.7949999999999999 1.3175000000000001 -0.2075 -0.7949999999999999 1.3175000000000001 -0.2325 -0.10500000000000004 1.3425 -0.2325 -0.10500000000000004 1.3425 -0.2075 -0.10500000000000004 1.3175000000000001 -0.2075 -0.10500000000000004 1.4100000000000001 -0.245 -0.92 1.403910362600903 -0.245 -0.8893853254107928 1.386568542494924 -0.245 -0.8634314575050762 1.3606146745892072 -0.245 -0.8460896373990971 1.33 -0.245 -0.8400000000000001 1.299385325410793 -0.245 -0.8460896373990971 1.2734314575050762 -0.245 -0.8634314575050762 1.256089637399097 -0.245 -0.8893853254107928 1.25 -0.245 -0.92 1.256089637399097 -0.245 -0.9506146745892072 1.2734314575050762 -0.245 -0.9765685424949239 1.2993853254107928 -0.245 -0.9939103626009029 1.33 -0.245 -1.0 1.3606146745892074 -0.245 -0.9939103626009029 1.386568542494924 -0.245 -0.9765685424949239 1.403910362600903 -0.245 -0.9506146745892072 1.4100000000000001 -0.195 -0.92 1.403910362600903 -0.195 -0.8893853254107928 1.386568542494924 -0.195 -0.8634314575050762 1.3606146745892072 -0.195 -0.8460896373990971 1.33 -0.195 -0.8400000000000001 1.299385325410793 -0.195 -0.8460896373990971 1.2734314575050762 -0.195 -0.8634314575050762 1.256089637399097 -0.195 -0.8893853254107928 1.25 -0.195 -0.92 1.256089637399097 -0.195 -0.9506146745892072 1.2734314575050762 -0.195 -0.9765685424949239 1.2993853254107928 -0.195 -0.9939103626009029 1.33 -0.195 -1.0 1.3606146745892074 -0.195 -0.9939103626009029 1.386568542494924 -0.195 -0.9765685424949239 1.403910362600903 -0.195 -0.9506146745892072 1.3175000000000001 0.2075 -0.7949999999999999 1.3425 0.2075 -0.7949999999999999 1.3425 0.2325 -0.7949999999999999 1.3175000000000001 0.2325 -0.7949999999999999 1.3175000000000001 0.2075 -0.10500000000000004 1.3425 0.2075 -0.10500000000000004 1.3425 0.2325 -0.10500000000000004 1.3175000000000001 0.2325 -0.10500000000000004 1.4100000000000001 0.195 -0.92 1.403910362600903 0.195 -0.8893853254107928 1.386568542494924 0.195 -0.8634314575050762 1.3606146745892072 0.195 -0.8460896373990971 1.33 0.195 -0.8400000000000001 1.299385325410793 0.195 -0.8460896373990971 1.2734314575050762 0.195 -0.8634314575050762 1.256089637399097 0.195 -0.8893853254107928 1.25 0.195 -0.92 1.256089637399097 0.195 -0.9506146745892072 1.2734314575050762 0.195 -0.9765685424949239 1.2993853254107928 0.195 -0.9939103626009029 1.33 0.195 -1.0 1.3606146745892074 0.195 -0.9939103626009029 1.386568542494924 0.195 -0.9765685424949239 1.403910362600903 0.195 -0.9506146745892072 1.4100000000000001 0.245 -0.92 1.403910362600903 0.245 -0.8893853254107928 1.386568542494924 0.245 -0.8634314575050762 1.3606146745892072 0.245 -0.8460896373990971 1.33 0.245 -0.8400000000000001 1.299385325410793 0.245 -0.8460896373990971 1.2734314575050762 0.245 -0.8634314575050762 1.256089637399097 0.245 -0.8893853254107928 1.25 0.245 -0.92 1.256089637399097 0.245 -0.9506146745892072 1.2734314575050762 0.245 -0.9765685424949239 1.2993853254107928 0.245 -0.9939103626009029 1.33 0.245 -1.0 1.3606146745892074 0.245 -0.9939103626009029 1.386568542494924 0.245 -0.9765685424949239 1.403910362600903 0.245 -0.9506146745892072 0.3675 -0.2325 -0.13999999999999999 0.3925 -0.2325 -0.13999999999999999 0.3925 -0.2075 -0.13999999999999999 0.3675 -0.2075 -0.13999999999999999 0.3675 -0.2325 0.09999999999999999 0.3925 -0.2325 0.09999999999999999 0.3925 -0.2075 0.09999999999999999 0.3675 -0.2075 0.09999999999999999 0.38 -0.2325 -0.1325 0.57 -0.2325 -0.1325 0.57 -0.2075 -0.1325 0.38 -0.2075 -0.1325 0.38 -0.2325 -0.1075 0.57 -0.2325 -0.1075 0.57 -0.2075 -0.1075 0.38 -0.2075 -0.1075 0.3675 0.2075 -0.13999999999999999 0.3925 0.2075 -0.13999999999999999 0.3925 0.2325 -0.13999999999999999 0.3675 0.2325 -0.13999999999999999 0.3675 0.2075 0.09999999999999999 0.3925 0.2075 0.09999999999999999 0.3925 0.2325 0.09999999999999999 0.3675 0.2325 0.09999999999999999 0.38 0.2075 -0.1325 0.57 0.2075 -0.1325 0.57 0.2325 -0.1325 0.38 0.2325 -0.1325 0.38 0.2075 -0.1075 0.57 0.2075 -0.1075 0.57 0.2325 -0.1075 0.38 0.2325 -0.1075 0.3675 -0.2325 0.08750000000000001 0.3925 -0.2325 0.08750000000000001 0.3925 0.2325 0.08750000000000001 0.3675 0.2325 0.08750000000000001 0.3675 -0.2325 0.1125 0.3925 -0.2325 0.1125 0.3925 0.2325 0.1125 0.3675 0.2325 0.1125</float_array>
          <technique_common>
            <accessor source="#positions-array" count="344" stride="3">
              <param name="X" type="float" />
              <param name="Y" type="float" />
              <param name="Z" type="float" />
            </accessor>
          </technique_common>
        </source>
        <source id="cart-normals">
          <float_array id="cart-normals-array" count="1692">0 0 -1 0 0 -1 0 0 1 0 0 1 0 -1 0 0 -1 0 1 0 0 1 0 0 0 1 0 0 1 -0 -1 0 0 -1 0 0 0 0 -1 0 0 -1 0 0 1 0 0 1 0 -1 0 0 -1 0 1 0 0 1 0 0 0 1 0 0 1 -0 -1 0 0 -1 0 0 0 0 -1 0 0 -1 0 0 1 0 0 1 0 -1 0 0 -1 0 1 0 0 1 0 0 0 1 0 0 1 -0 -1 0 0 -1 0 0 0 0 -1 0 0 -1 0 0 1 0 0 1 0 -1 0 0 -1 0 1 0 0 1 0 0 0 1 0 0 1 -0 -1 0 0 -1 0 0 0 0 -1 0 0 -1 0 0 1 0 0 1 0 -1 0 0 -1 0 1 0 0 1 0 0 0 1 0 0 1 -0 -1 0 0 -1 0 0 0 0 -1 0 0 -1 0 0 1 0 0 1 0 -1 0 0 -1 0 1 0 0 1 0 0 0 1 0 0 1 -0 -1 0 0 -1 0 0 0 0 -1 0 0 -1 0 0 1 0 0 1 0 -1 0 0 -1 0 1 0 0 1 0 0 0 1 0 0 1 -0 -1 0 0 -1 0 0 0 0 -1 0 0 -1 0 0 1 0 0 1 0 -1 0 0 -1 0 1 0 0 1 0 0 0 1 0 0 1 -0 -1 0 0 -1 0 0 0 0 -1 0 0 -1 0 0 1 0 0 1 0 -1 0 0 -1 0 1 0 0 1 0 0 0 1 0 0 1 -0 -1 0 0 -1 0 0 0 0 -1 0 0 -1 0 0 1 0 0 1 0 -1 0 0 -1 0 1 0 0 1 0 0 0 1 0 0 1 -0 -1 0 0 -1 0 0 0 0 -1 0 0 -1 0 0 1 0 0 1 0 -1 0 0 -1 0 1 0 0 1 0 0 0 1 0 0 1 -0 -1 0 0 -1 0 0 0 0 -1 0 0 -1 0 0 1 0 0 1 0 -1 0 0 -1 0 1 0 0 1 0 0 0 1 0 0 1 -0 -1 0 0 -1 0 0 0 0 -1 0 0 -1 0 0 1 0 0 1 0 -1 0 0 -1 0 1 0 0 1 0 0 0 1 0 0 1 -0 -1 0 0 -1 0 0 0 0 -1 0 0 -1 0 0 1 0 0 1 0 -1 0 0 -1 0 1 0 0 1 0 0 0 1 0 0 1 -0 -1 0 0 -1 0 0 0 0 -1 0 0 -1 0 0 1 0 0 1 0 -1 0 0 -1 0 1 0 0 1 0 0 0 1 0 0 1 -0 -1 0 0 -1 0 0 0 0 -1 0 0 -1 0 0 1 0 0 1 0 -1 0 0 -1 0 1 0 0 1 0 0 0 1 0 0 1 -0 -1 0 0 -1 0 0 0 0 -1 0 0 -1 0 0 1 0 0 1 0 -1 0 0 -1 0 1 0 0 1 0 0 0 1 0 0 1 -0 -1 0 0 -1 0 0 0 0 -1 0 0 -1 0 0 1 0 0 1 0 -1 0 0 -1 0 1 0 0 1 0 0 0 1 0 0 1 -0 -1 0 0 -1 0 0 0 0 -1 0 0 -1 0 0 1 0 0 1 0 -1 0 0 -1 0 1 0 0 1 0 0 0 1 0 0 1 -0 -1 0 0 -1 0 0 0 0 -1 0 0 -1 0 0 1 0 0 1 0 -1 0 0 -1 0 1 0 0 1 0 0 0 1 0 0 1 -0 -1 0 0 -1 0 0 0 0 -1 0 0 -1 0 0 1 0 0 1 0 -1 0 0 -1 0 1 0 0 1 0 0 0 1 0 0 1 -0 -1 0 0 -1 0 0 0 0 -1 0 0 -1 0 0 1 0 0 1 0 -1 0 0 -1 0 1 0 0 1 0 0 0 1 0 0 1 -0 -1 0 0 -1 0 0 0 0 -1 0 0 -1 0 0 1 0 0 1 0 -1 0 0 -1 0 1 0 0 1 0 0 0 1 0 0 1 -0 -1 0 0 -1 0 0 0 0 -1 0 0 -1 0 0 1 0 0 1 0 -1 0 0 -1 0 1 0 0 1 0 0 0 1 0 0 1 -0 -1 0 0 -1 0 0 0 0 -1 0 0 -1 0 0 1 0 0 1 0 -1 0 0 -1 0 1 0 0 1 0 0 0 1 0 0 1 -0 -1 0 0 -1 0 0 0 0 -1 0 0 -1 0 0 1 0 0 1 0 -1 0 0 -1 0 1 0 0 1 0 0 0 1 0 0 1 -0 -1 0 0 -1 0 0 0 0 -1 0 0 -1 0 0 1 0 0 1 0 -1 0 0 -1 0 1 0 0 1 0 0 0 1 0 0 1 -0 -1 0 0 -1 0 0 -0.98078528 0 -0.19509032 -0.98078528 0 -0.19509032 -0.83146961 0 -0.55557023 -0.83146961 0 -0.55557023 -0.55557023 0 -0.83146961 -0.55557023 0 -0.83146961 -0.19509032 0 -0.98078528 -0.19509032 0 -0.98078528 0.19509032 0 -0.98078528 0.19509032 0 -0.98078528 0.55557023 0 -0.83146961 0.55557023 0 -0.83146961 0.83146961 0 -0.55557023 0.83146961 0 -0.55557023 0.98078528 0 -0.19509032 0.98078528 0 -0.19509032 0.98078528 0 0.19509032 0.98078528 -0 0.19509032 0.83146961 0 0.55557023 0.83146961 -0 0.55557023 0.55557023 0 0.83146961 0.55557023 -0 0.83146961 0.19509032 0 0.98078528 0.19509032 -0 0.98078528 -0.19509032 0 0.98078528 -0.19509032 0 0.98078528 -0.55557023 0 0.83146961 -0.55557023 0 0.83146961 -0.83146961 0 0.55557023 -0.83146961 0 0.55557023 -0.98078528 0 0.19509032 -0.98078528 0 0.19509032 0 1 0 0 -1 0 0 1 0 0 -1 0 0 1 0 0 -1 0 0 1 0 0 -1 0 0 1 0 0 -1 0 0 1 0 0 -1 0 0 1 0 0 -1 0 0 1 0 -0 -1 0 0 1 0 0 -1 0 0 1 0 0 -1 0 0 1 0 0 -1 0 0 1 0 0 -1 0 0 1 0 0 -1 0 0 1 0 0 -1 0 -0.98078528 0 -0.19509032 -0.98078528 0 -0.19509032 -0.83146961 0 -0.55557023 -0.83146961 0 -0.55557023 -0.55557023 0 -0.83146961 -0.55557023 0 -0.83146961 -0.19509032 0 -0.98078528 -0.19509032 0 -0.98078528 0.19509032 0 -0.98078528 0.19509032 0 -0.98078528 0.55557023 0 -0.83146961 0.55557023 0 -0.83146961 0.83146961 0 -0.55557023 0.83146961 0 -0.55557023 0.98078528 0 -0.19509032 0.98078528 0 -0.19509032 0.98078528 0 0.19509032 0.98078528 -0 0.19509032 0.83146961 0 0.55557023 0.83146961 -0 0.55557023 0.55557023 0 0.83146961 0.55557023 -0 0.83146961 0.19509032 0 0.98078528 0.19509032 -0 0.98078528 -0.19509032 0 0.98078528 -0.19509032 0 0.98078528 -0.55557023 0 0.83146961 -0.55557023 0 0.83146961 -0.83146961 0 0.55557023 -0.83146961 0 0.55557023 -0.98078528 0 0.19509032 -0.98078528 0 0.19509032 0 1 0 0 -1 0 0 1 0 0 -1 0 0 1 0 0 -1 0 0 1 0 0 -1 0 0 1 0 0 -1 0 0 1 0 0 -1 0 0 1 0 0 -1 0 0 1 0 -0 -1 0 0 1 0 0 -1 0 0 1 0 0 -1 0 0 1 0 0 -1 0 0 1 0 0 -1 0 0 1 0 0 -1 0 0 1 0 0 -1 0 -0.98078528 0 -0.19509032 -0.98078528 0 -0.19509032 -0.83146961 0 -0.55557023 -0.83146961 0 -0.55557023 -0.55557023 0 -0.83146961 -0.55557023 0 -0.83146961 -0.19509032 0 -0.98078528 -0.19509032 0 -0.98078528 0.19509032 0 -0.98078528 0.19509032 0 -0.98078528 0.55557023 0 -0.83146961 0.55557023 0 -0.83146961 0.83146961 0 -0.55557023 0.83146961 0 -0.55557023 0.98078528 0 -0.19509032 0.98078528 0 -0.19509032 0.98078528 0 0.19509032 0.98078528 -0 0.19509032 0.83146961 0 0.55557023 0.83146961 -0 0.55557023 0.55557023 0 0.83146961 0.55557023 -0 0.83146961 0.19509032 0 0.98078528 0.19509032 -0 0.98078528 -0.19509032 0 0.98078528 -0.19509032 0 0.98078528 -0.55557023 0 0.83146961 -0.55557023 0 0.83146961 -0.83146961 0 0.55557023 -0.83146961 0 0.55557023 -0.98078528 0 0.19509032 -0.98078528 0 0.19509032 0 1 0 0 -1 0 0 1 0 0 -1 0 0 1 0 0 -1 0 0 1 0 0 -1 0 0 1 0 0 -1 0 0 1 0 0 -1 0 0 1 0 0 -1 0 0 1 0 -0 -1 0 0 1 0 0 -1 0 0 1 0 0 -1 0 0 1 0 0 -1 0 0 1 0 0 -1 0 0 1 0 0 -1 0 0 1 0 0 -1 0 -0.98078528 0 -0.19509032 -0.98078528 0 -0.19509032 -0.83146961 0 -0.55557023 -0.83146961 0 -0.55557023 -0.55557023 0 -0.83146961 -0.55557023 0 -0.83146961 -0.19509032 0 -0.98078528 -0.19509032 0 -0.98078528 0.19509032 0 -0.98078528 0.19509032 0 -0.98078528 0.55557023 0 -0.83146961 0.55557023 0 -0.83146961 0.83146961 0 -0.55557023 0.83146961 0 -0.55557023 0.98078528 0 -0.19509032 0.98078528 0 -0.19509032 0.98078528 0 0.19509032 0.98078528 -0 0.19509032 0.83146961 0 0.55557023 0.83146961 -0 0.55557023 0.55557023 0 0.83146961 0.55557023 -0 0.83146961 0.19509032 0 0.98078528 0.19509032 -0 0.98078528 -0.19509032 0 0.98078528 -0.19509032 0 0.98078528 -0.55557023 0 0.83146961 -0.55557023 0 0.83146961 -0.83146961 0 0.55557023 -0.83146961 0 0.55557023 -0.98078528 0 0.19509032 -0.98078528 0 0.19509032 0 1 0 0 -1 0 0 1 0 0 -1 0 0 1 0 0 -1 0 0 1 0 0 -1 0 0 1 0 0 -1 0 0 1 0 0 -1 0 0 1 0 0 -1 0 0 1 0 -0 -1 0 0 1 0 0 -1 0 0 1 0 0 -1 0 0 1 0 0 -1 0 0 1 0 0 -1 0 0 1 0 0 -1 0 0 1 0 0 -1 0</float_array>
          <technique_common>
            <accessor source="#cart-normals-array" count="564" stride="3">
              <param name="X" type="float" />
              <param name="Y" type="float" />
              <param name="Z" type="float" />
            </accessor>
          </technique_common>
        </source>
        <vertices id="vertices">
          <input semantic="POSITION" source="#positions" />
        </vertices>
        <triangles material="steel" count="144">
          <input semantic="VERTEX" source="#vertices" offset="0" />
          <p>0 0 2 0 1 0 0 1 3 1 2 1 4 2 5 2 6 2 4 3 6 3 7 3 0 4 1 4 5 4 0 5 5 5 4 5 1 6 2 6 6 6 1 7 6 7 5 7 2 8 3 8 7 8 2 9 7 9 6 9 3 10 0 10 4 10 3 11 4 11 7 11 48 12 50 12 49 12 48 13 51 13 50 13 52 14 53 14 54 14 52 15 54 15 55 15 48 16 49 16 53 16 48 17 53 17 52 17 49 18 50 18 54 18 49 19 54 19 53 19 50 20 51 20 55 20 50 21 55 21 54 21 51 22 48 22 52 22 51 23 52 23 55 23 96 24 98 24 97 24 96 25 99 25 98 25 100 26 101 26 102 26 100 27 102 27 103 27 96 28 97 28 101 28 96 29 101 29 100 29 97 30 98 30 102 30 97 31 102 31 101 31 98 32 99 32 103 32 98 33 103 33 102 33 99 34 96 34 100 34 99 35 100 35 103 35 144 36 146 36 145 36 144 37 147 37 146 37 148 38 149 38 150 38 148 39 150 39 151 39 144 40 145 40 149 40 144 41 149 41 148 41 145 42 146 42 150 42 145 43 150 43 149 43 146 44 147 44 151 44 146 45 151 45 150 45 147 46 144 46 148 46 147 47 148 47 151 47 184 48 186 48 185 48 184 49 187 49 186 49 188 50 189 50 190 50 188 51 190 51 191 51 184 52 185 52 189 52 184 53 189 53 188 53 185 54 186 54 190 54 185 55 190 55 189 55 186 56 187 56 191 56 186 57 191 57 190 57 187 58 184 58 188 58 187 59 188 59 191 59 224 60 226 60 225 60 224 61 227 61 226 61 228 62 229 62 230 62 228 63 230 63 231 63 224 64 225 64 229 64 224 65 229 65 228 65 225 66 226 66 230 66 225 67 230 67 229 67 226 68 227 68 231 68 226 69 231 69 230 69 227 70 224 70 228 70 227 71 228 71 231 71 264 72 266 72 265 72 264 73 267 73 266 73 268 74 269 74 270 74 268 75 270 75 271 75 264 76 265 76 269 76 264 77 269 77 268 77 265 78 266 78 270 78 265 79 270 79 269 79 266 80 267 80 271 80 266 81 271 81 270 81 267 82 264 82 268 82 267 83 268 83 271 83 304 84 306 84 305 84 304 85 307 85 306 85 308 86 309 86 310 86 308 87 310 87 311 87 304 88 305 88 309 88 304 89 309 89 308 89 305 90 306 90 310 90 305 91 310 91 309 91 306 92 307 92 311 92 306 93 311 93 310 93 307 94 304 94 308 94 307 95 308 95 311 95 312 96 314 96 313 96 312 97 315 97 314 97 316 98 317 98 318 98 316 99 318 99 319 99 312 100 313 100 317 100 312 101 317 101 316 101 313 102 314 102 318 102 313 103 318 103 317 103 314 104 315 104 319 104 314 105 319 105 318 105 315 106 312 106 316 106 315 107 316 107 319 107 320 108 322 108 321 108 320 109 323 109 322 109 324 110 325 110 326 110 324 111 326 111 327 111 320 112 321 112 325 112 320 113 325 113 324 113 321 114 322 114 326 114 321 115 326 115 325 115 322 116 323 116 327 116 322 117 327 117 326 117 323 118 320 118 324 118 323 119 324 119 327 119 328 120 330 120 329 120 328 121 331 121 330 121 332 122 333 122 334 122 332 123 334 123 335 123 328 124 329 124 333 124 328 125 333 125 332 125 329 126 330 126 334 126 329 127 334 127 333 127 330 128 331 128 335 128 330 129 335 129 334 129 331 130 328 130 332 130 331 131 332 131 335 131 336 132 338 132 337 132 336 133 339 133 338 133 340 134 341 134 342 134 340 135 342 135 343 135 336 136 337 136 341 136 336 137 341 137 340 137 337 138 338 138 342 138 337 139 342 139 341 139 338 140 339 140 343 140 338 141 343 141 342 141 339 142 336 142 340 142 339 143 340 143 343 143</p>
          <input semantic="NORMAL" source="#cart-normals" offset="1" />
        </triangles>
        <triangles material="blue" count="180">
          <input semantic="VERTEX" source="#vertices" offset="0" />
          <p>8 144 10 144 9 144 8 145 11 145 10 145 12 146 13 146 14 146 12 147 14 147 15 147 8 148 9 148 13 148 8 149 13 149 12 149 9 150 10 150 14 150 9 151 14 151 13 151 10 152 11 152 15 152 10 153 15 153 14 153 11 154 8 154 12 154 11 155 12 155 15 155 16 156 18 156 17 156 16 157 19 157 18 157 20 158 21 158 22 158 20 159 22 159 23 159 16 160 17 160 21 160 16 161 21 161 20 161 17 162 18 162 22 162 17 163 22 163 21 163 18 164 19 164 23 164 18 165 23 165 22 165 19 166 16 166 20 166 19 167 20 167 23 167 24 168 26 168 25 168 24 169 27 169 26 169 28 170 29 170 30 170 28 171 30 171 31 171 24 172 25 172 29 172 24 173 29 173 28 173 25 174 26 174 30 174 25 175 30 175 29 175 26 176 27 176 31 176 26 177 31 177 30 177 27 178 24 178 28 178 27 179 28 179 31 179 32 180 34 180 33 180 32 181 35 181 34 181 36 182 37 182 38 182 36 183 38 183 39 183 32 184 33 184 37 184 32 185 37 185 36 185 33 186 34 186 38 186 33 187 38 187 37 187 34 188 35 188 39 188 34 189 39 189 38 189 35 190 32 190 36 190 35 191 36 191 39 191 40 192 42 192 41 192 40 193 43 193 42 193 44 194 45 194 46 194 44 195 46 195 47 195 40 196 41 196 45 196 40 197 45 197 44 197 41 198 42 198 46 198 41 199 46 199 45 199 42 200 43 200 47 200 42 201 47 201 46 201 43 202 40 202 44 202 43 203 44 203 47 203 56 204 58 204 57 204 56 205 59 205 58 205 60 206 61 206 62 206 60 207 62 207 63 207 56 208 57 208 61 208 56 209 61 209 60 209 57 210 58 210 62 210 57 211 62 211 61 211 58 212 59 212 63 212 58 213 63 213 62 213 59 214 56 214 60 214 59 215 60 215 63 215 64 216 66 216 65 216 64 217 67 217 66 217 68 218 69 218 70 218 68 219 70 219 71 219 64 220 65 220 69 220 64 221 69 221 68 221 65 222 66 222 70 222 65 223 70 223 69 223 66 224 67 224 71 224 66 225 71 225 70 225 67 226 64 226 68 226 67 227 68 227 71 227 72 228 74 228 73 228 72 229 75 229 74 229 76 230 77 230 78 230 76 231 78 231 79 231 72 232 73 232 77 232 72 233 77 233 76 233 73 234 74 234 78 234 73 235 78 235 77 235 74 236 75 236 79 236 74 237 79 237 78 237 75 238 72 238 76 238 75 239 76 239 79 239 80 240 82 240 81 240 80 241 83 241 82 241 84 242 85 242 86 242 84 243 86 243 87 243 80 244 81 244 85 244 80 245 85 245 84 245 81 246 82 246 86 246 81 247 86 247 85 247 82 248 83 248 87 248 82 249 87 249 86 249 83 250 80 250 84 250 83 251 84 251 87 251 88 252 90 252 89 252 88 253 91 253 90 253 92 254 93 254 94 254 92 255 94 255 95 255 88 256 89 256 93 256 88 257 93 257 92 257 89 258 90 258 94 258 89 259 94 259 93 259 90 260 91 260 95 260 90 261 95 261 94 261 91 262 88 262 92 262 91 263 92 263 95 263 104 264 106 264 105 264 104 265 107 265 106 265 108 266 109 266 110 266 108 267 110 267 111 267 104 268 105 268 109 268 104 269 109 269 108 269 105 270 106 270 110 270 105 271 110 271 109 271 106 272 107 272 111 272 106 273 111 273 110 273 107 274 104 274 108 274 107 275 108 275 111 275 112 276 114 276 113 276 112 277 115 277 114 277 116 278 117 278 118 278 116 279 118 279 119 279 112 280 113 280 117 280 112 281 117 281 116 281 113 282 114 282 118 282 113 283 118 283 117 283 114 284 115 284 119 284 114 285 119 285 118 285 115 286 112 286 116 286 115 287 116 287 119 287 120 288 122 288 121 288 120 289 123 289 122 289 124 290 125 290 126 290 124 291 126 291 127 291 120 292 121 292 125 292 120 293 125 293 124 293 121 294 122 294 126 294 121 295 126 295 125 295 122 296 123 296 127 296 122 297 127 297 126 297 123 298 120 298 124 298 123 299 124 299 127 299 128 300 130 300 129 300 128 301 131 301 130 301 132 302 133 302 134 302 132 303 134 303 135 303 128 304 129 304 133 304 128 305 133 305 132 305 129 306 130 306 134 306 129 307 134 307 133 307 130 308 131 308 135 308 130 309 135 309 134 309 131 310 128 310 132 310 131 311 132 311 135 311 136 312 138 312 137 312 136 313 139 313 138 313 140 314 141 314 142 314 140 315 142 315 143 315 136 316 137 316 141 316 136 317 141 317 140 317 137 318 138 318 142 318 137 319 142 319 141 319 138 320 139 320 143 320 138 321 143 321 142 321 139 322 136 322 140 322 139 323 140 323 143 323</p>
          <input semantic="NORMAL" source="#cart-normals" offset="1" />
        </triangles>
        <triangles material="rubber" count="240">
          <input semantic="VERTEX" source="#vertices" offset="0" />
          <p>152 324 153 324 169 324 152 325 169 325 168 325 153 326 154 326 170 326 153 327 170 327 169 327 154 328 155 328 171 328 154 329 171 329 170 329 155 330 156 330 172 330 155 331 172 331 171 331 156 332 157 332 173 332 156 333 173 333 172 333 157 334 158 334 174 334 157 335 174 335 173 335 158 336 159 336 175 336 158 337 175 337 174 337 159 338 160 338 176 338 159 339 176 339 175 339 160 340 161 340 177 340 160 341 177 341 176 341 161 342 162 342 178 342 161 343 178 343 177 343 162 344 163 344 179 344 162 345 179 345 178 345 163 346 164 346 180 346 163 347 180 347 179 347 164 348 165 348 181 348 164 349 181 349 180 349 165 350 166 350 182 350 165 351 182 351 181 351 166 352 167 352 183 352 166 353 183 353 182 353 167 354 152 354 168 354 167 355 168 355 183 355 152 356 154 356 153 356 168 357 169 357 170 357 152 358 155 358 154 358 168 359 170 359 171 359 152 360 156 360 155 360 168 361 171 361 172 361 152 362 157 362 156 362 168 363 172 363 173 363 152 364 158 364 157 364 168 365 173 365 174 365 152 366 159 366 158 366 168 367 174 367 175 367 152 368 160 368 159 368 168 369 175 369 176 369 152 370 161 370 160 370 168 371 176 371 177 371 152 372 162 372 161 372 168 373 177 373 178 373 152 374 163 374 162 374 168 375 178 375 179 375 152 376 164 376 163 376 168 377 179 377 180 377 152 378 165 378 164 378 168 379 180 379 181 379 152 380 166 380 165 380 168 381 181 381 182 381 152 382 167 382 166 382 168 383 182 383 183 383 192 384 193 384 209 384 192 385 209 385 208 385 193 386 194 386 210 386 193 387 210 387 209 387 194 388 195 388 211 388 194 389 211 389 210 389 195 390 196 390 212 390 195 391 212 391 211 391 196 392 197 392 213 392 196 393 213 393 212 393 197 394 198 394 214 394 197 395 214 395 213 395 198 396 199 396 215 396 198 397 215 397 214 397 199 398 200 398 216 398 199 399 216 399 215 399 200 400 201 400 217 400 200 401 217 401 216 401 201 402 202 402 218 402 201 403 218 403 217 403 202 404 203 404 219 404 202 405 219 405 218 405 203 406 204 406 220 406 203 407 220 407 219 407 204 408 205 408 221 408 204 409 221 409 220 409 205 410 206 410 222 410 205 411 222 411 221 411 206 412 207 412 223 412 206 413 223 413 222 413 207 414 192 414 208 414 207 415 208 415 223 415 192 416 194 416 193 416 208 417 209 417 210 417 192 418 195 418 194 418 208 419 210 419 211 419 192 420 196 420 195 420 208 421 211 421 212 421 192 422 197 422 196 422 208 423 212 423 213 423 192 424 198 424 197 424 208 425 213 425 214 425 192 426 199 426 198 426 208 427 214 427 215 427 192 428 200 428 199 428 208 429 215 429 216 429 192 430 201 430 200 430 208 431 216 431 217 431 192 432 202 432 201 432 208 433 217 433 218 433 192 434 203 434 202 434 208 435 218 435 219 435 192 436 204 436 203 436 208 437 219 437 220 437 192 438 205 438 204 438 208 439 220 439 221 439 192 440 206 440 205 440 208 441 221 441 222 441 192 442 207 442 206 442 208 443 222 443 223 443 232 444 233 444 249 444 232 445 249 445 248 445 233 446 234 446 250 446 233 447 250 447 249 447 234 448 235 448 251 448 234 449 251 449 250 449 235 450 236 450 252 450 235 451 252 451 251 451 236 452 237 452 253 452 236 453 253 453 252 453 237 454 238 454 254 454 237 455 254 455 253 455 238 456 239 456 255 456 238 457 255 457 254 457 239 458 240 458 256 458 239 459 256 459 255 459 240 460 241 460 257 460 240 461 257 461 256 461 241 462 242 462 258 462 241 463 258 463 257 463 242 464 243 464 259 464 242 465 259 465 258 465 243 466 244 466 260 466 243 467 260 467 259 467 244 468 245 468 261 468 244 469 261 469 260 469 245 470 246 470 262 470 245 471 262 471 261 471 246 472 247 472 263 472 246 473 263 473 262 473 247 474 232 474 248 474 247 475 248 475 263 475 232 476 234 476 233 476 248 477 249 477 250 477 232 478 235 478 234 478 248 479 250 479 251 479 232 480 236 480 235 480 248 481 251 481 252 481 232 482 237 482 236 482 248 483 252 483 253 483 232 484 238 484 237 484 248 485 253 485 254 485 232 486 239 486 238 486 248 487 254 487 255 487 232 488 240 488 239 488 248 489 255 489 256 489 232 490 241 490 240 490 248 491 256 491 257 491 232 492 242 492 241 492 248 493 257 493 258 493 232 494 243 494 242 494 248 495 258 495 259 495 232 496 244 496 243 496 248 497 259 497 260 497 232 498 245 498 244 498 248 499 260 499 261 499 232 500 246 500 245 500 248 501 261 501 262 501 232 502 247 502 246 502 248 503 262 503 263 503 272 504 273 504 289 504 272 505 289 505 288 505 273 506 274 506 290 506 273 507 290 507 289 507 274 508 275 508 291 508 274 509 291 509 290 509 275 510 276 510 292 510 275 511 292 511 291 511 276 512 277 512 293 512 276 513 293 513 292 513 277 514 278 514 294 514 277 515 294 515 293 515 278 516 279 516 295 516 278 517 295 517 294 517 279 518 280 518 296 518 279 519 296 519 295 519 280 520 281 520 297 520 280 521 297 521 296 521 281 522 282 522 298 522 281 523 298 523 297 523 282 524 283 524 299 524 282 525 299 525 298 525 283 526 284 526 300 526 283 527 300 527 299 527 284 528 285 528 301 528 284 529 301 529 300 529 285 530 286 530 302 530 285 531 302 531 301 531 286 532 287 532 303 532 286 533 303 533 302 533 287 534 272 534 288 534 287 535 288 535 303 535 272 536 274 536 273 536 288 537 289 537 290 537 272 538 275 538 274 538 288 539 290 539 291 539 272 540 276 540 275 540 288 541 291 541 292 541 272 542 277 542 276 542 288 543 292 543 293 543 272 544 278 544 277 544 288 545 293 545 294 545 272 546 279 546 278 546 288 547 294 547 295 547 272 548 280 548 279 548 288 549 295 549 296 549 272 550 281 550 280 550 288 551 296 551 297 551 272 552 282 552 281 552 288 553 297 553 298 553 272 554 283 554 282 554 288 555 298 555 299 555 272 556 284 556 283 556 288 557 299 557 300 557 272 558 285 558 284 558 288 559 300 559 301 559 272 560 286 560 285 560 288 561 301 561 302 561 272 562 287 562 286 562 288 563 302 563 303 563</p>
          <input semantic="NORMAL" source="#cart-normals" offset="1" />
        </triangles>
      </mesh>
    </geometry>
  </library_geometries>
  <library_controllers>
    <controller id="cartskin">
      <skin source="#cartgeo">
        <bind_shape_matrix>1 0 0 0 0 1 0 0 0 0 1 0 0 0 0 1</bind_shape_matrix>
        <source id="joints">
          <Name_array id="joints-array" count="1">CartRoot</Name_array>
          <technique_common>
            <accessor source="#joints-array" count="1" stride="1">
              <param name="JOINT" type="Name" />
            </accessor>
          </technique_common>
        </source>
        <source id="binds">
          <float_array id="binds-array" count="16">1 0 0 0 0 1 0 0 0 0 1 0 0 0 0 1</float_array>
          <technique_common>
            <accessor source="#binds-array" count="1" stride="16">
              <param name="TRANSFORM" type="float4x4" />
            </accessor>
          </technique_common>
        </source>
        <source id="weights">
          <float_array id="weights-array" count="1">1</float_array>
          <technique_common>
            <accessor source="#weights-array" count="1" stride="1">
              <param name="WEIGHT" type="float" />
            </accessor>
          </technique_common>
        </source>
        <joints>
          <input semantic="JOINT" source="#joints" />
          <input semantic="INV_BIND_MATRIX" source="#binds" />
        </joints>
        <vertex_weights count="344">
          <input semantic="JOINT" source="#joints" offset="0" />
          <input semantic="WEIGHT" source="#weights" offset="1" />
          <vcount>1 1 1 1 1 1 1 1 1 1 1 1 1 1 1 1 1 1 1 1 1 1 1 1 1 1 1 1 1 1 1 1 1 1 1 1 1 1 1 1 1 1 1 1 1 1 1 1 1 1 1 1 1 1 1 1 1 1 1 1 1 1 1 1 1 1 1 1 1 1 1 1 1 1 1 1 1 1 1 1 1 1 1 1 1 1 1 1 1 1 1 1 1 1 1 1 1 1 1 1 1 1 1 1 1 1 1 1 1 1 1 1 1 1 1 1 1 1 1 1 1 1 1 1 1 1 1 1 1 1 1 1 1 1 1 1 1 1 1 1 1 1 1 1 1 1 1 1 1 1 1 1 1 1 1 1 1 1 1 1 1 1 1 1 1 1 1 1 1 1 1 1 1 1 1 1 1 1 1 1 1 1 1 1 1 1 1 1 1 1 1 1 1 1 1 1 1 1 1 1 1 1 1 1 1 1 1 1 1 1 1 1 1 1 1 1 1 1 1 1 1 1 1 1 1 1 1 1 1 1 1 1 1 1 1 1 1 1 1 1 1 1 1 1 1 1 1 1 1 1 1 1 1 1 1 1 1 1 1 1 1 1 1 1 1 1 1 1 1 1 1 1 1 1 1 1 1 1 1 1 1 1 1 1 1 1 1 1 1 1 1 1 1 1 1 1 1 1 1 1 1 1 1 1 1 1 1 1 1 1 1 1 1 1 1 1 1 1 1 1 1 1 1 1 1 1 1 1 1 1 1 1 1 1 1 1 1 1 1 1 1 1 1 1</vcount>
          <v>0 0 0 0 0 0 0 0 0 0 0 0 0 0 0 0 0 0 0 0 0 0 0 0 0 0 0 0 0 0 0 0 0 0 0 0 0 0 0 0 0 0 0 0 0 0 0 0 0 0 0 0 0 0 0 0 0 0 0 0 0 0 0 0 0 0 0 0 0 0 0 0 0 0 0 0 0 0 0 0 0 0 0 0 0 0 0 0 0 0 0 0 0 0 0 0 0 0 0 0 0 0 0 0 0 0 0 0 0 0 0 0 0 0 0 0 0 0 0 0 0 0 0 0 0 0 0 0 0 0 0 0 0 0 0 0 0 0 0 0 0 0 0 0 0 0 0 0 0 0 0 0 0 0 0 0 0 0 0 0 0 0 0 0 0 0 0 0 0 0 0 0 0 0 0 0 0 0 0 0 0 0 0 0 0 0 0 0 0 0 0 0 0 0 0 0 0 0 0 0 0 0 0 0 0 0 0 0 0 0 0 0 0 0 0 0 0 0 0 0 0 0 0 0 0 0 0 0 0 0 0 0 0 0 0 0 0 0 0 0 0 0 0 0 0 0 0 0 0 0 0 0 0 0 0 0 0 0 0 0 0 0 0 0 0 0 0 0 0 0 0 0 0 0 0 0 0 0 0 0 0 0 0 0 0 0 0 0 0 0 0 0 0 0 0 0 0 0 0 0 0 0 0 0 0 0 0 0 0 0 0 0 0 0 0 0 0 0 0 0 0 0 0 0 0 0 0 0 0 0 0 0 0 0 0 0 0 0 0 0 0 0 0 0 0 0 0 0 0 0 0 0 0 0 0 0 0 0 0 0 0 0 0 0 0 0 0 0 0 0 0 0 0 0 0 0 0 0 0 0 0 0 0 0 0 0 0 0 0 0 0 0 0 0 0 0 0 0 0 0 0 0 0 0 0 0 0 0 0 0 0 0 0 0 0 0 0 0 0 0 0 0 0 0 0 0 0 0 0 0 0 0 0 0 0 0 0 0 0 0 0 0 0 0 0 0 0 0 0 0 0 0 0 0 0 0 0 0 0 0 0 0 0 0 0 0 0 0 0 0 0 0 0 0 0 0 0 0 0 0 0 0 0 0 0 0 0 0 0 0 0 0 0 0 0 0 0 0 0 0 0 0 0 0 0 0 0 0 0 0 0 0 0 0 0 0 0 0 0 0 0 0 0 0 0 0 0 0 0 0 0 0 0 0 0 0 0 0 0 0 0 0 0 0 0 0 0 0 0 0 0 0 0 0 0 0 0 0 0 0 0 0 0 0 0 0 0 0 0 0 0 0 0 0 0 0 0 0 0 0 0 0 0 0 0 0 0 0 0 0 0 0 0 0 0 0 0 0 0 0 0 0 0 0 0 0 0 0 0 0 0 0 0 0 0 0 0 0 0 0 0 0 0 0 0 0 0 0 0 0 0 0 0 0 0 0 0 0 0 0 0 0 0 0 0 0 0 0 0 0 0 0 0 0 0 0 0 0 0 0 0 0 0 0 0 0 0 0 0 0 0 0 0 0 0 0 0 0 0 0 0 0 0 0 0 0 0 0</v>
        </vertex_weights>
      </skin>
    </controller>
  </library_controllers>
  <library_animations>
    <animation id="cart-animation">
      <source id="times">
        <float_array id="times-array" count="2">0 1</float_array>
        <technique_common>
          <accessor source="#times-array" count="2" stride="1">
            <param name="TIME" type="float" />
          </accessor>
        </technique_common>
      </source>
      <source id="transforms">
        <float_array id="transforms-array" count="32">1 0 0 0 0 1 0 0 0 0 1 0 0 0 0 1 1 0 0 0 0 1 0 0 0 0 1 0 0 0 0 1</float_array>
        <technique_common>
          <accessor source="#transforms-array" count="2" stride="16">
            <param name="TRANSFORM" type="float4x4" />
          </accessor>
        </technique_common>
      </source>
      <source id="interpolation">
        <Name_array id="interpolation-array" count="2">LINEAR LINEAR</Name_array>
        <technique_common>
          <accessor source="#interpolation-array" count="2" stride="1">
            <param name="INTERPOLATION" type="Name" />
          </accessor>
        </technique_common>
      </source>
      <sampler id="sampler">
        <input semantic="INPUT" source="#times" />
        <input semantic="OUTPUT" source="#transforms" />
        <input semantic="INTERPOLATION" source="#interpolation" />
      </sampler>
      <channel source="#sampler" target="CartRoot/transform" />
    </animation>
  </library_animations>
  <library_visual_scenes>
    <visual_scene id="Scene">
      <node id="CartRoot" sid="CartRoot" type="JOINT">
        <matrix sid="transform">1 0 0 0 0 1 0 0 0 0 1 0 0 0 0 1</matrix>
      </node>
      <node id="cart">
        <instance_controller url="#cartskin">
          <skeleton>#CartRoot</skeleton>
          <bind_material>
            <technique_common>
              <instance_material symbol="steel" target="#steel" />
              <instance_material symbol="blue" target="#blue" />
              <instance_material symbol="rubber" target="#rubber" />
            </technique_common>
          </bind_material>
        </instance_controller>
      </node>
    </visual_scene>
  </library_visual_scenes>
  <scene>
    <instance_visual_scene url="#Scene" />
  </scene>
</COLLADA>